<?xml version="1.0" standalone="no"?>
<!DOCTYPE svg PUBLIC "-//W3C//DTD SVG 20010904//EN"
 "http://www.w3.org/TR/2001/REC-SVG-20010904/DTD/svg10.dtd">
<svg version="1.0" xmlns="http://www.w3.org/2000/svg"
 width="225.000000pt" height="225.000000pt" viewBox="0 0 225.000000 225.000000"
 preserveAspectRatio="xMidYMid meet">

<g transform="translate(0.000000,225.000000) scale(0.100000,-0.100000)"
fill="#000000" stroke="none">
<path d="M250 1125 l0 -1125 875 0 875 0 -1 953 0 952 -156 173 -156 172 -719
0 -718 0 0 -1125z m1380 845 l0 -140 115 0 115 0 0 -845 0 -845 -735 0 -735 0
0 985 0 985 620 0 620 0 0 -140z"/>
<path d="M636 1561 c-39 -26 -55 -57 -56 -104 -1 -100 99 -159 190 -112 68 35
79 140 22 198 -40 39 -112 48 -156 18z"/>
<path d="M1020 1450 l0 -70 325 0 325 0 0 70 0 70 -325 0 -325 0 0 -70z"/>
<path d="M636 1231 c-40 -27 -55 -57 -56 -113 0 -102 99 -152 199 -99 59 32
67 140 13 194 -40 39 -112 48 -156 18z"/>
<path d="M1020 1120 l0 -70 325 0 325 0 0 70 0 70 -325 0 -325 0 0 -70z"/>
<path d="M654 910 c-72 -29 -99 -139 -48 -199 76 -91 224 -38 224 81 -1 88
-94 151 -176 118z"/>
<path d="M1020 790 l0 -70 325 0 325 0 0 70 0 70 -325 0 -325 0 0 -70z"/>
</g>
</svg>
